HIERARCHY
ROOT hip
{
  OFFSET 0 0 0
  CHANNELS 6 Xposition Yposition Zposition Zrotation Yrotation Xrotation
  JOINT abdomen
  {
    OFFSET 0 20.6881 -0.73152
    CHANNELS 3 Zrotation Xrotation Yrotation
    JOINT chest
    {
      OFFSET 0 11.7043 -0.48768
      CHANNELS 3 Zrotation Xrotation Yrotation
      JOINT neck
      {
        OFFSET 0 22.1894 -2.19456
        CHANNELS 3 Zrotation Xrotation Yrotation
        JOINT head
        {
          OFFSET -0.24384 7.07133 1.2192
          CHANNELS 3 Zrotation Xrotation Yrotation
          JOINT leftEye
          {
            OFFSET 4.14528 8.04674 8.04672
            CHANNELS 3 Zrotation Xrotation Yrotation
            End Site
            {
              OFFSET 1 0 0
            }
          }
          JOINT rightEye
          {
            OFFSET -3.6576 8.04674 8.04672
            CHANNELS 3 Zrotation Xrotation Yrotation
            End Site
            {
              OFFSET 1 0 0
            }
          }
        }
      }
      JOINT rCollar
      {
        OFFSET -2.68224 19.2634 -4.8768
        CHANNELS 3 Zrotation Xrotation Yrotation
        JOINT rShldr
        {
          OFFSET -8.77824 -1.95073 1.46304
          CHANNELS 3 Zrotation Xrotation Yrotation
          JOINT rForeArm
          {
            OFFSET -28.1742 -1.7115 0.48768
            CHANNELS 3 Zrotation Xrotation Yrotation
            JOINT rHand
            {
              OFFSET -22.5879 0.773209 7.07136
              CHANNELS 3 Zrotation Xrotation Yrotation
              JOINT rThumb1
              {
                OFFSET -1.2192 -0.487915 3.41376
                CHANNELS 3 Zrotation Xrotation Yrotation
                JOINT rThumb2
                {
                  OFFSET -3.37035 -0.52449 3.41376
                  CHANNELS 3 Zrotation Xrotation Yrotation
                  End Site
                  {
                    OFFSET -1.78271 -1.18214 1.43049
                  }
                }
              }
              JOINT rIndex1
              {
                OFFSET -7.75947 0.938293 5.60832
                CHANNELS 3 Zrotation Xrotation Yrotation
                JOINT rIndex2
                {
                  OFFSET -2.54057 -0.884171 1.56538
                  CHANNELS 3 Zrotation Xrotation Yrotation
                  End Site
                  {
                    OFFSET -1.62519 -0.234802 1.16502
                  }
                }
              }
              JOINT rMid1
              {
                OFFSET -8.24714 1.18213 3.41376
                CHANNELS 3 Zrotation Xrotation Yrotation
                JOINT rMid2
                {
                  OFFSET -3.10165 -0.590103 1.0647
                  CHANNELS 3 Zrotation Xrotation Yrotation
                  End Site
                  {
                    OFFSET -2.48547 -0.328903 0.83742
                  }
                }
              }
              JOINT rRing1
              {
                OFFSET -8.82822 0.546677 1.51678
                CHANNELS 3 Zrotation Xrotation Yrotation
                JOINT rRing2
                {
                  OFFSET -2.60934 -0.819778 -0.0198488
                  CHANNELS 3 Zrotation Xrotation Yrotation
                  End Site
                  {
                    OFFSET -2.33842 -0.294052 0.168128
                  }
                }
              }
              JOINT rPinky1
              {
                OFFSET -8.27202 -0.0477905 -0.4584
                CHANNELS 3 Zrotation Xrotation Yrotation
                JOINT rPinky2
                {
                  OFFSET -1.82734 -0.647385 -0.700984
                  CHANNELS 3 Zrotation Xrotation Yrotation
                  End Site
                  {
                    OFFSET -1.69225 -0.51767 -0.607171
                  }
                }
              }
            }
          }
        }
      }
      JOINT lCollar
      {
        OFFSET 2.68224 19.2634 -4.8768
        CHANNELS 3 Zrotation Xrotation Yrotation
        JOINT lShldr
        {
          OFFSET 8.77824 -1.95073 1.46304
          CHANNELS 3 Zrotation Xrotation Yrotation
          JOINT lForeArm
          {
            OFFSET 28.1742 -1.7115 0.48768
            CHANNELS 3 Zrotation Xrotation Yrotation
            JOINT lHand
            {
              OFFSET 22.5879 0.773209 7.07136
              CHANNELS 3 Zrotation Xrotation Yrotation
              JOINT lThumb1
              {
                OFFSET 1.2192 -0.487915 3.41376
                CHANNELS 3 Zrotation Xrotation Yrotation
                JOINT lThumb2
                {
                  OFFSET 3.37035 -0.52449 3.41376
                  CHANNELS 3 Zrotation Xrotation Yrotation
                  End Site
                  {
                    OFFSET 1.78271 -1.18214 1.43049
                  }
                }
              }
              JOINT lIndex1
              {
                OFFSET 7.75947 0.938293 5.60832
                CHANNELS 3 Zrotation Xrotation Yrotation
                JOINT lIndex2
                {
                  OFFSET 2.54057 -0.884171 1.56538
                  CHANNELS 3 Zrotation Xrotation Yrotation
                  End Site
                  {
                    OFFSET 1.62519 -0.234802 1.16502
                  }
                }
              }
              JOINT lMid1
              {
                OFFSET 8.24714 1.18213 3.41376
                CHANNELS 3 Zrotation Xrotation Yrotation
                JOINT lMid2
                {
                  OFFSET 3.10165 -0.590103 1.0647
                  CHANNELS 3 Zrotation Xrotation Yrotation
                  End Site
                  {
                    OFFSET 2.48547 -0.328903 0.83742
                  }
                }
              }
              JOINT lRing1
              {
                OFFSET 8.82822 0.546677 1.51678
                CHANNELS 3 Zrotation Xrotation Yrotation
                JOINT lRing2
                {
                  OFFSET 2.60934 -0.819778 -0.0198488
                  CHANNELS 3 Zrotation Xrotation Yrotation
                  End Site
                  {
                    OFFSET 2.33842 -0.294052 0.168128
                  }
                }
              }
              JOINT lPinky1
              {
                OFFSET 8.27202 -0.0477905 -0.4584
                CHANNELS 3 Zrotation Xrotation Yrotation
                JOINT lPinky2
                {
                  OFFSET 1.82734 -0.647385 -0.700984
                  CHANNELS 3 Zrotation Xrotation Yrotation
                  End Site
                  {
                    OFFSET 1.69225 -0.51767 -0.607171
                  }
                }
              }
            }
          }
        }
      }
    }
  }
  JOINT rButtock
  {
    OFFSET -8.77824 4.35084 1.2192
    CHANNELS 3 Zrotation Xrotation Yrotation
    JOINT rThigh
    {
      OFFSET 0 -1.70687 -2.19456
      CHANNELS 3 Zrotation Xrotation Yrotation
      JOINT rShin
      {
        OFFSET 0 -36.8199 0.73152
        CHANNELS 3 Zrotation Xrotation Yrotation
        JOINT rFoot
        {
          OFFSET 0.73152 -45.1104 -5.12064
          CHANNELS 3 Zrotation Xrotation Yrotation
          End Site
          {
            OFFSET -1.1221 -3.69964 12.103
          }
        }
      }
    }
  }
  JOINT lButtock
  {
    OFFSET 8.77824 4.35084 1.2192
    CHANNELS 3 Zrotation Xrotation Yrotation
    JOINT lThigh
    {
      OFFSET 0 -1.70687 -2.19456
      CHANNELS 3 Zrotation Xrotation Yrotation
      JOINT lShin
      {
        OFFSET 0 -36.8199 0.73152
        CHANNELS 3 Zrotation Xrotation Yrotation
        JOINT lFoot
        {
          OFFSET -0.73152 -45.1104 -5.12064
          CHANNELS 3 Zrotation Xrotation Yrotation
          End Site
          {
            OFFSET 1.1221 -3.69964 12.103
          }
        }
      }
    }
  }
}
MOTION
Frames:	4
Frame Time:	0.03333
4.639580376998408 35.81284698834375 -17.560539886477226 4.708766937255859 15.601271629333496 1.9456686973571777 -3.784806966781616 16.029632568359375 -4.48109245300293 3.751631498336792 -8.105381965637207 -1.0231826305389404 -4.937629222869873 17.362112045288086 -5.7259297370910645 7.234943389892578 -29.382526397705078 -9.529269218444824 -0.022405754774808884 -0.10836529731750488 0.023500602692365646 0.14589980244636536 -0.016847020015120506 0.09675813466310501 -0.09104087203741074 0.013485172763466835 0.0676998570561409 65.26940155029297 15.405380249023438 -6.96696138381958 -17.308670043945312 -10.15093994140625 32.450138092041016 -0.4089427590370178 11.997498512268066 1.4934005737304688 0.045592524111270905 -0.05597523972392082 -0.15843290090560913 -0.11643801629543304 -0.16962872445583344 0.15792211890220642 -0.06795651465654373 -0.014935449697077274 0.01294674538075924 7.951882362365723 5.513720512390137 0.4384554922580719 -0.14342918992042542 0.024012185633182526 -0.07640346884727478 2.671316146850586 0.9501745700836182 0.0625695213675499 -0.14794082939624786 0.10993330925703049 -0.0031054760329425335 10.362314224243164 0.9188895225524902 0.08311574906110764 -0.003672983730211854 0.1449001133441925 -0.2555250823497772 2.116441488265991 -0.9292195439338684 -0.10888390243053436 0.027394462376832962 -0.21729400753974915 0.2007976621389389 -60.15570068359375 43.431922912597656 -24.238113403320312 16.951581954956055 -10.158076286315918 -32.16213607788086 0.1668751835823059 7.996814250946045 -1.334813117980957 0.03229166567325592 -0.35606202483177185 0.027665723115205765 -0.1982152760028839 0.13711848855018616 -0.052369218319654465 -0.06120791658759117 0.11489421874284744 0.015473717823624611 -7.839777946472168 5.718645095825195 -0.40685325860977173 0.18123959004878998 -0.33596280217170715 0.009976941160857677 -2.971076726913452 0.9797984957695007 -0.17722460627555847 0.1771334409713745 0.04317864775657654 0.17639492452144623 -10.330826759338379 0.644277811050415 -0.09002546966075897 0.1316916048526764 -0.030680710449814796 -0.03768572583794594 -2.1917216777801514 -0.8122410774230957 0.16819588840007782 -0.09726399928331375 0.10258019715547562 -0.11326634138822556 -17.96176528930664 -59.80440902709961 -3.145510673522949 -0.9247223734855652 52.28474807739258 1.0626641511917114 0.9019851088523865 10.970083236694336 1.3733704090118408 -0.030799249187111855 -0.2629256248474121 0.02560471184551716 3.302138328552246 -16.162742614746094 -4.953744888305664 1.489011287689209 68.23614501953125 -3.7053933143615723 9.4572114944458 -18.050504684448242 25.92774772644043
4.961450693757731 35.89458727723588 -18.542569224137733 5.0754876136779785 14.2664794921875 1.718677043914795 -4.011463642120361 16.55272102355957 -4.884932041168213 4.042987823486328 -7.955587863922119 -1.0668158531188965 -4.843076705932617 17.514381408691406 -5.205873966217041 7.148883819580078 -29.567218780517578 -8.54945182800293 -0.029505671933293343 -0.09114211052656174 0.02393716759979725 0.10147004574537277 -0.0036127171479165554 0.10002050548791885 -0.09086260944604874 0.02572723478078842 0.10527123510837555 65.94416046142578 14.136768341064453 -7.962594985961914 -17.59498405456543 -10.431281089782715 33.03538131713867 -0.40291211009025574 11.8921480178833 1.4649136066436768 0.09591404348611832 -0.09278980642557144 -0.14340521395206451 -0.0962502732872963 -0.1895313262939453 0.179365873336792 -0.12261313199996948 0.013154933229088783 -0.01915089599788189 7.966315746307373 5.523719310760498 0.4970130920410156 -0.13733136653900146 0.0024364134296774864 -0.047357089817523956 2.6609859466552734 0.9057894349098206 0.08394183963537216 -0.15662337839603424 0.08505154401063919 0.01116796862334013 10.407353401184082 0.9122514128684998 0.09190280735492706 -0.01799478940665722 0.13225017488002777 -0.22523126006126404 2.0677812099456787 -0.943810760974884 -0.11582630127668381 0.018221167847514153 -0.20540326833724976 0.15376396477222443 -59.734596252441406 42.93276596069336 -25.41108512878418 16.950035095214844 -10.185135841369629 -32.18260192871094 0.19122260808944702 7.856451034545898 -1.4224684238433838 0.0005190808442421257 -0.37402045726776123 0.01059259194880724 -0.17964693903923035 0.06788383424282074 -0.030698653310537338 -0.11140202730894089 0.13670292496681213 0.03741609677672386 -7.824726581573486 5.711529731750488 -0.4332190752029419 0.12972724437713623 -0.3171504735946655 -0.00639723613858223 -2.9456124305725098 0.9678278565406799 -0.21238921582698822 0.22875887155532837 0.08366530388593674 0.14595289528369904 -10.348397254943848 0.6768381595611572 -0.12244152277708054 0.14268358051776886 -0.07158644497394562 0.012528957799077034 -2.1962082386016846 -0.7444934844970703 0.22877483069896698 -0.11814325302839279 0.14210277795791626 -0.07574402540922165 -15.384629249572754 -58.802024841308594 2.166666030883789 -0.7543870210647583 47.822265625 0.8297621011734009 1.0814447402954102 12.157186508178711 1.4150649309158325 -0.027226701378822327 -0.2435363382101059 0.05315665900707245 1.177915096282959 -16.459667205810547 -5.772421360015869 1.3396356105804443 67.90006256103516 -3.4986515045166016 9.985069274902344 -17.93321990966797 27.141775131225586
5.257140681984985 36.12044455761527 -19.623739504652914 5.273964881896973 12.564492225646973 1.6150858402252197 -4.217521667480469 17.046449661254883 -5.236132621765137 4.319940090179443 -7.857959747314453 -1.095456600189209 -4.7771220207214355 17.57923698425293 -4.629779815673828 7.028087139129639 -29.708538055419922 -7.527629852294922 -0.011401081457734108 -0.0727982223033905 0.010752711445093155 0.06446089595556259 -0.0031566948164254427 0.08232326805591583 -0.06573211401700974 0.03893572837114334 0.12606357038021088 66.85436248779297 12.984467506408691 -9.038309097290039 -17.923704147338867 -10.720898628234863 33.706695556640625 -0.386760413646698 11.709548950195312 1.427984356880188 0.11968041956424713 -0.11418430507183075 -0.13316184282302856 -0.07643544673919678 -0.22174303233623505 0.21724377572536469 -0.16233515739440918 0.04560668393969536 -0.03894244134426117 7.947702407836914 5.5151448249816895 0.5492841005325317 -0.12619097530841827 -0.006209387909621 0.01328072976320982 2.6941964626312256 0.8453936576843262 0.05696713551878929 -0.16134774684906006 0.07095478475093842 0.027284715324640274 10.439699172973633 0.9174650311470032 0.08855372667312622 -0.050470225512981415 0.1522497683763504 -0.1690293699502945 2.044966459274292 -0.9320820569992065 -0.11926431208848953 0.012820938602089882 -0.15972134470939636 0.11592215299606323 -59.19008255004883 42.20454788208008 -26.76509666442871 16.933279037475586 -10.068360328674316 -32.07846450805664 0.22773154079914093 7.422693252563477 -1.4413249492645264 -0.031139647588133812 -0.3510173559188843 -0.018790360540151596 -0.15047307312488556 -0.0248421523720026 -0.0048964922316372395 -0.18243370950222015 0.17021501064300537 0.05834943428635597 -7.816656112670898 5.659898281097412 -0.46620452404022217 0.07137708365917206 -0.27271854877471924 -0.0417931042611599 -2.936863422393799 0.9622848033905029 -0.24347811937332153 0.2574838399887085 0.10092122852802277 0.09824299812316895 -10.373266220092773 0.7150092720985413 -0.11981680244207382 0.16294240951538086 -0.10849887877702713 0.07561322301626205 -2.212515354156494 -0.6957933902740479 0.3182917535305023 -0.13667815923690796 0.1845162957906723 -0.059013403952121735 -12.905476570129395 -57.79514694213867 7.053701400756836 -0.5921550393104553 42.96764373779297 0.5998642444610596 1.2089600563049316 12.131102561950684 1.8043506145477295 -0.019569167867302895 -0.2162044197320938 0.09856263548135757 -0.7295135259628296 -17.136171340942383 -6.0380539894104 1.136207103729248 67.65037536621094 -3.246277093887329 10.612025260925293 -17.800336837768555 28.353843688964844
5.5588813640432235 36.40889710664325 -20.813818325422712 5.300549507141113 10.6864013671875 1.6282552480697632 -4.405757427215576 17.655555725097656 -5.463526248931885 4.47063684463501 -7.892579555511475 -1.1010955572128296 -4.725039958953857 17.46784019470215 -3.933027982711792 6.8867011070251465 -29.865154266357422 -6.335587978363037 0.04006018117070198 -0.05217812955379486 0.0030622973572462797 0.03780015558004379 -0.011784764938056469 0.028133120387792587 -0.033235177397727966 0.04884064197540283 0.12709665298461914 67.73445129394531 12.288675308227539 -9.773785591125488 -18.29231071472168 -11.060567855834961 34.4213981628418 -0.3471406102180481 11.100255966186523 1.34457528591156 0.12546087801456451 -0.10684993118047714 -0.13222701847553253 -0.06544201076030731 -0.24548178911209106 0.2594735324382782 -0.15623745322227478 0.10270966589450836 -0.04537370055913925 7.879988670349121 5.489321231842041 0.5841395258903503 -0.12745548784732819 0.009030787274241447 0.0797681137919426 2.7360219955444336 0.7975372076034546 0.0033154997508972883 -0.12914615869522095 0.07517699152231216 0.02920483984053135 10.484184265136719 0.9290755987167358 0.06009284779429436 -0.0866759791970253 0.18024101853370667 -0.11833090335130692 2.0599706172943115 -0.8979102969169617 -0.12404423207044601 0.0057095554657280445 -0.09155967831611633 0.08814819902181625 -58.42308044433594 41.229888916015625 -28.28219223022461 16.906267166137695 -9.88076114654541 -31.955167770385742 0.17703258991241455 6.972658634185791 -1.390177845954895 -0.051983773708343506 -0.30599135160446167 -0.0713149830698967 -0.1090986356139183 -0.09078110754489899 0.037600673735141754 -0.24848994612693787 0.1866968870162964 0.06714794784784317 -7.8190531730651855 5.578639984130859 -0.49741318821907043 0.02248632162809372 -0.21695193648338318 -0.11448673158884048 -2.9362752437591553 0.9553989171981812 -0.2813842296600342 0.25848186016082764 0.10665711760520935 0.05683823674917221 -10.404496192932129 0.7643378376960754 -0.10374851524829865 0.17259998619556427 -0.129501610994339 0.11646045744419098 -2.233874797821045 -0.658996045589447 0.4182983934879303 -0.1496904045343399 0.20201189815998077 -0.0734439417719841 -10.629717826843262 -57.2464599609375 10.639650344848633 -0.4369037449359894 38.79014587402344 0.40806668996810913 1.1817066669464111 10.73654842376709 2.1186933517456055 -0.013901741243898869 -0.1963159441947937 0.12792684137821198 -2.222794771194458 -18.36945152282715 -5.682584285736084 1.0133947134017944 67.38489532470703 -3.08707594871521 11.123879432678223 -17.52558708190918 29.457401275634766
